<svg xmlns="http://www.w3.org/2000/svg" viewBox="0 0 220 222"><defs><style>.cls-1{fill:none;stroke:#000;stroke-miterlimit:10;stroke-width:5px;fill-rule:evenodd;}.cls-2{fill:#fff;}</style></defs><title>Recurso 7</title><g id="Capa_2" data-name="Capa 2"><g id="Capa_1-2" data-name="Capa 1"><path class="cls-1" d="M177.5,58.5c0,30.93-135,30.93-135,0s30.22-56,67.5-56S177.5,27.57,177.5,58.5Z"/><rect class="cls-2" x="2.5" y="48.5" width="215" height="171" rx="36.25"/><path d="M181.25,51A33.79,33.79,0,0,1,215,84.75v98.5A33.79,33.79,0,0,1,181.25,217H38.75A33.79,33.79,0,0,1,5,183.25V84.75A33.79,33.79,0,0,1,38.75,51h142.5m0-5H38.75A38.87,38.87,0,0,0,0,84.75v98.5A38.87,38.87,0,0,0,38.75,222h142.5A38.87,38.87,0,0,0,220,183.25V84.75A38.87,38.87,0,0,0,181.25,46Z"/><path d="M73,145.5a11.5,11.5,0,0,1,0-23h74a11.5,11.5,0,0,1,0,23Z"/><path d="M147,123a11,11,0,0,1,0,22H73a11,11,0,0,1,0-22h74m0-1H73a12,12,0,0,0,0,24h74a12,12,0,0,0,0-24Z"/><path d="M96.5,186.5a11.5,11.5,0,0,1,0-23h25a11.5,11.5,0,0,1,0,23Z"/><path d="M121.5,164a11,11,0,0,1,0,22h-25a11,11,0,0,1,0-22h25m0-1h-25a12,12,0,0,0,0,24h25a12,12,0,0,0,0-24Z"/></g></g></svg>