<svg xmlns="http://www.w3.org/2000/svg" viewBox="0 0 209.5 252"><defs><style>.cls-1{fill:#fff;stroke:#000;stroke-miterlimit:10;stroke-width:5px;}</style></defs><title>Recurso 2</title><g id="Capa_2" data-name="Capa 2"><g id="Capa_1-2" data-name="Capa 1"><rect class="cls-1" x="2.5" y="2.5" width="170" height="247" rx="12"/><circle class="cls-1" cx="144.5" cy="92.5" r="62.5"/><path d="M140.61,140.07v-11.9c-6.83-.12-13.9-2.24-18-5.18l2.83-7.89a31.35,31.35,0,0,0,17,5.06c8.36,0,14-4.83,14-11.54,0-6.48-4.59-10.48-13.31-14-12-4.71-19.43-10.13-19.43-20.38,0-9.77,6.95-17.19,17.79-19V43.38h7.3V54.8a31.53,31.53,0,0,1,15.31,4.12l-3,7.78a28.38,28.38,0,0,0-14.84-4c-9.06,0-12.48,5.42-12.48,10.13,0,6.12,4.36,9.19,14.6,13.43,12.13,4.94,18.26,11.07,18.26,21.55,0,9.3-6.48,18-18.61,20v12.25Z"/><path d="M13.52,30c22.29,7,40.85-17,63.41-10.5,10.41,3,20.52,9.48,31.68,6.15,6.2-1.84,11.82-5,18.2-6.34a61.05,61.05,0,0,1,23.79-.24c1.89.35,2.7-2.55.8-2.89a64.92,64.92,0,0,0-37,4c-6.85,2.84-12.51,4.36-19.9,2.35C88.8,21,83.44,18.27,77.73,16.63c-10.57-3-20.35-.28-30.21,3.82C37,24.82,25.9,30.77,14.32,27.13c-1.85-.58-2.63,2.31-.8,2.89Z"/><path d="M14.32,170.25c11.34-3.56,22.25,2.09,32.53,6.39,10.07,4.23,20,7.22,30.88,4.11,5.71-1.64,11.07-4.31,16.8-5.89,7.34-2,12.92-.56,19.72,2.27a65.11,65.11,0,0,0,37.15,4.05c1.9-.34,1.09-3.24-.8-2.89a61.05,61.05,0,0,1-23.79-.24c-6.14-1.32-11.52-4.2-17.44-6.11-11.48-3.72-21.7,2.83-32.44,5.92-22.57,6.47-41.12-17.5-63.41-10.5-1.83.57-1,3.47.8,2.89Z"/><path d="M16.32,202.25c11.34-3.56,22.25,2.09,32.53,6.39,10.07,4.23,20,7.22,30.88,4.11,5.71-1.64,11.07-4.31,16.8-5.89,7.34-2,12.92-.56,19.72,2.27a65.11,65.11,0,0,0,37.15,4.05c1.9-.34,1.09-3.24-.8-2.89a61.05,61.05,0,0,1-23.79-.24c-6.14-1.32-11.52-4.2-17.44-6.11-11.48-3.72-21.7,2.83-32.44,5.92-22.57,6.47-41.12-17.5-63.41-10.5-1.83.57-1,3.47.8,2.89Z"/><path d="M15.17,61.88c11.19,5.81,17.58-10.3,27.92-10,6.15.17,10,7.13,16.31,7.29,3.29.08,5.54-2,8.12-3.77,5-3.34,10.26-4.43,16.08-2.73a1.5,1.5,0,0,0,.8-2.89c-7.36-2.15-13.53-.24-19.66,4C60,57,57,55.86,52.54,53c-2.19-1.42-4.4-3-7-3.71-10.84-2.9-19.15,15.1-28.9,10C15,58.4,13.45,61,15.17,61.88Z"/><path d="M75.24,89.72c-5.48,2.52-11.07-3.26-15.46-5.85-3.5-2.07-7.21-3.43-11.25-2.12-2.54.83-4.65,2.48-7,3.72C37.19,87.76,35,86.71,31.2,84.41A20.67,20.67,0,0,0,14.6,81.9a1.51,1.51,0,0,0,.8,2.9A17.48,17.48,0,0,1,29.69,87c2,1.23,3.78,2.75,6.19,3,5.8.71,9.62-5.07,15-5.76,9.65-1.22,15.57,12.75,25.87,8,1.75-.81.23-3.4-1.52-2.59Z"/><path d="M10.94,118.62a35.28,35.28,0,0,0,15.57-.48,33.07,33.07,0,0,0,7.27-2.91c1.71-.93,4.62-2.51,6.67-1.81.58.19,1.39,1.49,2,1.91,3.84,2.77,8.34,1.51,12.63.84,7.89-1.23,15.73-.21,23.56.94,1.89.27,2.71-2.62.8-2.9-6.34-.92-12.74-1.88-19.17-1.59a69.46,69.46,0,0,0-7.48.93c-2.06.32-4.59,1-6.65.32-1.62-.51-2.65-2.05-4-3-3.48-2.37-5.81-.55-9.14,1.33a31.53,31.53,0,0,1-21.26,3.48c-1.88-.34-2.69,2.55-.79,2.89Z"/><path d="M20.73,141.15A31.71,31.71,0,0,1,42,144.63c3.37,1.87,5.63,3.71,9.14,1.32,1.6-1.08,1.51-2.17,4-2.94,1.82-.57,4.09-.1,5.89.18a76.1,76.1,0,0,0,8.24,1.07c6.42.31,12.84-.67,19.17-1.6,1.9-.27,1.09-3.16-.8-2.89-7.82,1.14-15.69,2.2-23.56.94-4.22-.68-8.87-2-12.63.84-.56.42-1,1.12-1.55,1.48-2.29,1.41-4.32,0-6.35-1a47.45,47.45,0,0,0-8-3.31,35.43,35.43,0,0,0-15.57-.47c-1.9.34-1.1,3.23.79,2.89Z"/></g></g></svg>