<svg xmlns="http://www.w3.org/2000/svg" viewBox="0 0 221 265.27"><defs><style>.cls-1{fill:#fff;}</style></defs><title>Recurso 9</title><g id="Capa_2" data-name="Capa 2"><g id="Capa_1-2" data-name="Capa 1"><circle class="cls-1" cx="110" cy="53" r="50.5"/><path d="M110,5A48,48,0,1,1,62,53,48.05,48.05,0,0,1,110,5m0-5a53,53,0,1,0,53,53A53,53,0,0,0,110,0Z"/><path class="cls-1" d="M110.5,262.77c-53.67,0-108-14.86-108-43.27a108,108,0,0,1,216,0C218.5,247.91,164.17,262.77,110.5,262.77Z"/><path d="M110.5,114A105.62,105.62,0,0,1,216,219.5c0,15-17,24.39-31.26,29.64-19.5,7.18-45.87,11.13-74.24,11.13s-54.74-3.95-74.24-11.13C22,243.89,5,234.48,5,219.5A105.62,105.62,0,0,1,110.5,114m0-5A110.5,110.5,0,0,0,0,219.5C0,250,55.25,265.27,110.5,265.27S221,250,221,219.5A110.5,110.5,0,0,0,110.5,109Z"/></g></g></svg>